<mxfile modified="2023-12-11T08:32:36.620Z" host="app.diagrams.net" agent="Mozilla/5.0 (Windows NT 10.0; Win64; x64) AppleWebKit/537.36 (KHTML, like Gecko) Chrome/119.0.0.0 Safari/537.36" etag="OVBqSYhqaY9qCE6iJ0JH" version="22.1.7" type="github">
  <diagram id="WI9T0HZ2pTsCkuznbFz-" name="Page-1">
    <mxGraphModel dx="1434" dy="782" grid="1" gridSize="10" guides="1" tooltips="1" connect="1" arrows="1" fold="1" page="1" pageScale="1" pageWidth="1169" pageHeight="827" math="0" shadow="0">
      <root>
        <mxCell id="0" />
        <mxCell id="1" parent="0" />
        <mxCell id="vRpGPo6Lk-Z9bFn2FbQZ-10" value="" style="rounded=1;whiteSpace=wrap;html=1;fillColor=none;dashed=1;strokeColor=#3399FF;" vertex="1" parent="1">
          <mxGeometry x="200" y="30" width="760" height="530" as="geometry" />
        </mxCell>
        <mxCell id="vRpGPo6Lk-Z9bFn2FbQZ-1" value="Resource Group" style="image;aspect=fixed;html=1;points=[];align=center;fontSize=12;image=img/lib/azure2/general/Resource_Groups.svg;" vertex="1" parent="1">
          <mxGeometry x="910" y="510" width="68" height="64" as="geometry" />
        </mxCell>
        <mxCell id="vRpGPo6Lk-Z9bFn2FbQZ-2" value="API Management" style="image;aspect=fixed;html=1;points=[];align=center;fontSize=12;image=img/lib/azure2/app_services/API_Management_Services.svg;" vertex="1" parent="1">
          <mxGeometry x="280" y="230" width="65" height="60" as="geometry" />
        </mxCell>
        <mxCell id="vRpGPo6Lk-Z9bFn2FbQZ-3" value="Front-end" style="shape=image;html=1;verticalAlign=top;verticalLabelPosition=bottom;labelBackgroundColor=#ffffff;imageAspect=0;aspect=fixed;image=https://cdn1.iconfinder.com/data/icons/unicons-line-vol-1/24/atom-128.png" vertex="1" parent="1">
          <mxGeometry x="70" y="210" width="100" height="100" as="geometry" />
        </mxCell>
        <mxCell id="vRpGPo6Lk-Z9bFn2FbQZ-13" style="edgeStyle=orthogonalEdgeStyle;rounded=0;orthogonalLoop=1;jettySize=auto;html=1;dashed=1;" edge="1" parent="1" source="vRpGPo6Lk-Z9bFn2FbQZ-4" target="vRpGPo6Lk-Z9bFn2FbQZ-6">
          <mxGeometry relative="1" as="geometry" />
        </mxCell>
        <mxCell id="vRpGPo6Lk-Z9bFn2FbQZ-4" value="load balancer" style="verticalLabelPosition=bottom;html=1;verticalAlign=top;align=center;strokeColor=none;fillColor=#00BEF2;shape=mxgraph.azure.azure_load_balancer;" vertex="1" parent="1">
          <mxGeometry x="470" y="242.5" width="50" height="35" as="geometry" />
        </mxCell>
        <mxCell id="vRpGPo6Lk-Z9bFn2FbQZ-5" value="Azure VM" style="verticalLabelPosition=bottom;html=1;verticalAlign=top;align=center;strokeColor=none;fillColor=#00BEF2;shape=mxgraph.azure.virtual_machine;" vertex="1" parent="1">
          <mxGeometry x="640" y="120" width="50" height="40" as="geometry" />
        </mxCell>
        <mxCell id="vRpGPo6Lk-Z9bFn2FbQZ-24" style="rounded=0;orthogonalLoop=1;jettySize=auto;html=1;dashed=1;startArrow=classic;startFill=1;strokeColor=#0066CC;entryX=0;entryY=0.5;entryDx=0;entryDy=0;entryPerimeter=0;" edge="1" parent="1" source="vRpGPo6Lk-Z9bFn2FbQZ-6" target="vRpGPo6Lk-Z9bFn2FbQZ-20">
          <mxGeometry relative="1" as="geometry">
            <mxPoint x="760" y="100" as="targetPoint" />
          </mxGeometry>
        </mxCell>
        <mxCell id="vRpGPo6Lk-Z9bFn2FbQZ-6" value="Azure Functions" style="image;aspect=fixed;html=1;points=[];align=center;fontSize=12;image=img/lib/azure2/compute/Function_Apps.svg;" vertex="1" parent="1">
          <mxGeometry x="631" y="230" width="68" height="60" as="geometry" />
        </mxCell>
        <mxCell id="vRpGPo6Lk-Z9bFn2FbQZ-25" style="rounded=0;orthogonalLoop=1;jettySize=auto;html=1;dashed=1;startArrow=classic;startFill=1;strokeColor=#0066CC;entryX=0;entryY=0.5;entryDx=0;entryDy=0;entryPerimeter=0;" edge="1" parent="1" source="vRpGPo6Lk-Z9bFn2FbQZ-8" target="vRpGPo6Lk-Z9bFn2FbQZ-20">
          <mxGeometry relative="1" as="geometry">
            <mxPoint x="750" y="110" as="targetPoint" />
          </mxGeometry>
        </mxCell>
        <mxCell id="vRpGPo6Lk-Z9bFn2FbQZ-8" value="Containers" style="image;aspect=fixed;html=1;points=[];align=center;fontSize=12;image=img/lib/azure2/containers/Kubernetes_Services.svg;" vertex="1" parent="1">
          <mxGeometry x="631" y="360" width="68" height="60" as="geometry" />
        </mxCell>
        <mxCell id="vRpGPo6Lk-Z9bFn2FbQZ-9" style="edgeStyle=orthogonalEdgeStyle;rounded=0;orthogonalLoop=1;jettySize=auto;html=1;entryX=-0.015;entryY=0.5;entryDx=0;entryDy=0;entryPerimeter=0;startArrow=classic;startFill=1;strokeWidth=3;" edge="1" parent="1" source="vRpGPo6Lk-Z9bFn2FbQZ-3" target="vRpGPo6Lk-Z9bFn2FbQZ-2">
          <mxGeometry relative="1" as="geometry" />
        </mxCell>
        <mxCell id="vRpGPo6Lk-Z9bFn2FbQZ-11" style="edgeStyle=orthogonalEdgeStyle;rounded=0;orthogonalLoop=1;jettySize=auto;html=1;entryX=0.05;entryY=0.5;entryDx=0;entryDy=0;entryPerimeter=0;dashed=1;" edge="1" parent="1" source="vRpGPo6Lk-Z9bFn2FbQZ-2" target="vRpGPo6Lk-Z9bFn2FbQZ-4">
          <mxGeometry relative="1" as="geometry" />
        </mxCell>
        <mxCell id="vRpGPo6Lk-Z9bFn2FbQZ-12" style="edgeStyle=orthogonalEdgeStyle;rounded=0;orthogonalLoop=1;jettySize=auto;html=1;entryX=0;entryY=0.5;entryDx=0;entryDy=0;entryPerimeter=0;dashed=1;" edge="1" parent="1" source="vRpGPo6Lk-Z9bFn2FbQZ-4" target="vRpGPo6Lk-Z9bFn2FbQZ-5">
          <mxGeometry relative="1" as="geometry">
            <Array as="points">
              <mxPoint x="495" y="140" />
            </Array>
          </mxGeometry>
        </mxCell>
        <mxCell id="vRpGPo6Lk-Z9bFn2FbQZ-14" style="edgeStyle=orthogonalEdgeStyle;rounded=0;orthogonalLoop=1;jettySize=auto;html=1;entryX=0;entryY=0.617;entryDx=0;entryDy=0;entryPerimeter=0;dashed=1;" edge="1" parent="1" target="vRpGPo6Lk-Z9bFn2FbQZ-8">
          <mxGeometry relative="1" as="geometry">
            <mxPoint x="495" y="300" as="sourcePoint" />
            <Array as="points">
              <mxPoint x="495" y="397" />
            </Array>
          </mxGeometry>
        </mxCell>
        <mxCell id="vRpGPo6Lk-Z9bFn2FbQZ-18" value="log analytics workspace" style="image;aspect=fixed;html=1;points=[];align=center;fontSize=12;image=img/lib/azure2/analytics/Log_Analytics_Workspaces.svg;" vertex="1" parent="1">
          <mxGeometry x="852" y="430" width="50" height="50" as="geometry" />
        </mxCell>
        <mxCell id="vRpGPo6Lk-Z9bFn2FbQZ-19" value="Monitor" style="image;aspect=fixed;html=1;points=[];align=center;fontSize=12;image=img/lib/azure2/management_governance/Monitor.svg;" vertex="1" parent="1">
          <mxGeometry x="852" y="360" width="50" height="50" as="geometry" />
        </mxCell>
        <mxCell id="vRpGPo6Lk-Z9bFn2FbQZ-20" value="" style="verticalLabelPosition=bottom;html=1;verticalAlign=top;align=center;strokeColor=none;fillColor=#00BEF2;shape=mxgraph.azure.database;" vertex="1" parent="1">
          <mxGeometry x="852" y="210" width="37.5" height="50" as="geometry" />
        </mxCell>
        <mxCell id="vRpGPo6Lk-Z9bFn2FbQZ-22" value="" style="rounded=1;whiteSpace=wrap;html=1;fillColor=none;dashed=1;strokeColor=#007FFF;" vertex="1" parent="1">
          <mxGeometry x="805" y="350" width="140" height="164" as="geometry" />
        </mxCell>
        <mxCell id="vRpGPo6Lk-Z9bFn2FbQZ-23" style="rounded=0;orthogonalLoop=1;jettySize=auto;html=1;entryX=0;entryY=0.5;entryDx=0;entryDy=0;entryPerimeter=0;dashed=1;startArrow=classic;startFill=1;strokeColor=#0066CC;" edge="1" parent="1" source="vRpGPo6Lk-Z9bFn2FbQZ-5" target="vRpGPo6Lk-Z9bFn2FbQZ-20">
          <mxGeometry relative="1" as="geometry" />
        </mxCell>
      </root>
    </mxGraphModel>
  </diagram>
</mxfile>
